#!OML:ASF G:\JayActor3\Patient Classification 1\Patient 1\Session 6\male.ASF
:FULLY-SPECIFIED
:DEGREES
866
root 14.2697 15.5045 -6.12392 23.2273 -58.9729 -5.06902
lowerback 36.1976 -1.36366 1.62546
upperback 11.5238 -2.05893 -0.671292
thorax -5.32488 -1.27951 -0.796821
lowerneck 5.9748 1.31975 2.76287
upperneck -4.40625 1.88308 -1.97423
head -2.38498 0.951084 -1.18179
rclavicle 2.94201e-014 9.14409e-015
rhumerus -26.4653 33.4797 -79.313
rradius 64.2523
rwrist -14.2799
rhand -23.0834 -5.67937
rfingers 7.12502
rthumb 3.36253 -35.6326
lclavicle 2.94201e-014 9.14409e-015
lhumerus -30.0447 -24.508 79.4653
lradius 59.3392
lwrist 43.7897
lhand -24.3733 12.3229
lfingers 7.12502
lthumb 2.11679 42.2921
rfemur -62.371 6.78274 18.0999
rtibia 49.3189
rfoot -9.96722 -14.46
rtoes -1.86955
lfemur -56.8262 5.65072 -25.9846
ltibia 47.6724
lfoot -10.2137 -0.297068
ltoes 4.97167
867
root 14.2203 15.5272 -6.10368 23.3732 -58.928 -5.08232
lowerback 36.0841 -1.32866 1.655
upperback 11.5253 -2.00103 -0.622511
thorax -5.28121 -1.25178 -0.78414
lowerneck 6.07194 1.30918 2.8127
upperneck -4.4989 1.87592 -1.95984
head -2.43385 0.946075 -1.18834
rclavicle 6.67916e-014 7.51406e-014
rhumerus -26.4643 33.6558 -79.44
rradius 64.0991
rwrist -14.1059
rhand -22.8518 -5.71678
rfingers 7.12502
rthumb 3.58618 -35.6664
lclavicle 6.67916e-014 7.51406e-014
lhumerus -30.1388 -25.0231 79.7226
lradius 59.4165
lwrist 43.8626
lhand -24.1387 12.1718
lfingers 7.12502
lthumb 2.34343 42.1387
rfemur -62.2135 6.85685 18.1233
rtibia 49.1428
rfoot -9.72608 -14.6143
rtoes -1.3212
lfemur -56.6424 5.57183 -25.873
ltibia 47.5146
lfoot -10.3122 -0.259751
ltoes 4.95952
868
root 14.1712 15.5481 -6.08526 23.5798 -58.8606 -5.10426
lowerback 35.8855 -1.29688 1.66435
upperback 11.5387 -1.95341 -0.563935
thorax -5.19459 -1.22899 -0.749068
lowerneck 6.23381 1.31457 2.8778
upperneck -4.59802 1.89438 -1.92626
head -2.49634 0.952999 -1.19341
rclavicle 2.06736e-014 -5.64548e-014
rhumerus -26.4808 33.7891 -79.5523
rradius 64.0319
rwrist -13.8039
rhand -22.8291 -5.76148
rfingers 7.12502
rthumb 3.60818 -35.7107
lclavicle 2.06736e-014 -5.64548e-014
lhumerus -30.2131 -25.4851 79.9513
lradius 59.542
lwrist 43.8593
lhand -23.9119 11.9746
lfingers 7.12502
lthumb 2.56248 41.939
rfemur -62.1146 6.8948 18.1719
rtibia 49.0052
rfoot -9.56868 -14.715
rtoes -0.741903
lfemur -56.543 5.48353 -25.7557
ltibia 47.3787
lfoot -10.3964 -0.241848
ltoes 4.95752
869
root 14.1228 15.5682 -6.06834 23.8307 -58.7758 -5.13788
lowerback 35.537 -1.26258 1.65315
upperback 11.6548 -1.91154 -0.488241
thorax -5.07621 -1.20934 -0.685629
lowerneck 6.44174 1.33005 2.94164
upperneck -4.68651 1.92801 -1.89023
head -2.56366 0.967473 -1.19869
rclavicle 6.36111e-015 2.34566e-014
rhumerus -26.5106 33.8743 -79.6353
rradius 64.0496
rwrist -13.4288
rhand -22.9755 -5.80655
rfingers 7.12502
rthumb 3.46681 -35.7581
lclavicle 6.36111e-015 2.34566e-014
lhumerus -30.2713 -25.8746 80.1641
lradius 59.7125
lwrist 43.7874
lhand -23.6718 11.7785
lfingers 7.12502
lthumb 2.79431 41.7399
rfemur -62.0557 6.89292 18.2453
rtibia 48.8871
rfoot -9.47879 -14.769
rtoes -0.172873
lfemur -56.4965 5.38587 -25.6294
ltibia 47.2511
lfoot -10.4706 -0.233321
ltoes 4.93558
870
root 14.0756 15.5883 -6.05232 24.1021 -58.684 -5.17946
lowerback 35.2526 -1.22643 1.6518
upperback 11.6874 -1.86171 -0.407857
thorax -4.93814 -1.18593 -0.625222
lowerneck 6.6887 1.33786 3.01945
upperneck -4.76595 1.95377 -1.86154
head -2.63556 0.978012 -1.20906
rclavicle 4.29375e-014 -3.02153e-014
rhumerus -26.5613 33.8567 -79.6972
rradius 64.1428
rwrist -13.0316
rhand -23.2499 -5.84757
rfingers 7.12502
rthumb 3.20178 -35.8033
lclavicle 4.29375e-014 -3.02153e-014
lhumerus -30.3164 -26.2328 80.3571
lradius 59.9303
lwrist 43.6788
lhand -23.3951 11.5595
lfingers 7.12502
lthumb 3.06152 41.5173
rfemur -62.0155 6.84688 18.3411
rtibia 48.7697
rfoot -9.42632 -14.7824
rtoes 0.339444
lfemur -56.4672 5.27527 -25.4926
ltibia 47.1165
lfoot -10.5388 -0.219749
ltoes 4.91646
871
root 14.0299 15.6088 -6.03654 24.3754 -58.5992 -5.22872
lowerback 34.9751 -1.18483 1.65441
upperback 11.7242 -1.80422 -0.320493
thorax -4.79695 -1.15921 -0.561983
lowerneck 6.96468 1.33787 3.08663
upperneck -4.84077 1.96847 -1.84919
head -2.71191 0.98381 -1.22292
rclavicle 7.95139e-015 3.69739e-014
rhumerus -26.6268 33.7603 -79.7278
rradius 64.305
rwrist -12.6862
rhand -23.6063 -5.85716
rfingers 7.12502
rthumb 2.85755 -35.8178
lclavicle 7.95139e-015 3.69739e-014
lhumerus -30.3654 -26.5486 80.5453
lradius 60.1988
lwrist 43.5803
lhand -23.0955 11.3387
lfingers 7.12502
lthumb 3.35087 41.2921
rfemur -61.977 6.75369 18.4633
rtibia 48.6436
rfoot -9.37885 -14.7501
rtoes 0.738443
lfemur -56.4264 5.15494 -25.3465
ltibia 46.9649
lfoot -10.6054 -0.189677
ltoes 4.89449
872
root 13.9863 15.6296 -6.02043 24.6414 -58.529 -5.29062
lowerback 34.7282 -1.14099 1.67205
upperback 11.7644 -1.74009 -0.231795
thorax -4.66251 -1.12947 -0.506712
lowerneck 7.26082 1.32864 3.13707
upperneck -4.92392 1.96891 -1.85796
head -2.79557 0.983536 -1.24064
rclavicle -4.29375e-014 -1.07344e-014
rhumerus -26.6946 33.5829 -79.7262
rradius 64.5232
rwrist -12.4124
rhand -23.9919 -5.84685
rfingers 7.12502
rthumb 2.48514 -35.8121
lclavicle -4.29375e-014 -1.07344e-014
lhumerus -30.4279 -26.8293 80.7322
lradius 60.5169
lwrist 43.5366
lhand -22.7927 11.1127
lfingers 7.12502
lthumb 3.64333 41.0613
rfemur -61.9268 6.61644 18.6145
rtibia 48.5079
rfoot -9.32958 -14.6593
rtoes 1.0441
lfemur -56.3566 5.03086 -25.1911
ltibia 46.7948
lfoot -10.6762 -0.142897
ltoes 4.89417
873
root 13.9445 15.6503 -6.00362 24.8948 -58.4763 -5.36805
lowerback 34.5257 -1.10101 1.70307
upperback 11.8063 -1.67775 -0.147596
thorax -4.54198 -1.1007 -0.461426
lowerneck 7.5697 1.31691 3.17316
upperneck -5.02336 1.96379 -1.88864
head -2.88768 0.98152 -1.26327
rclavicle -2.62396e-014 7.11649e-014
rhumerus -26.7598 33.364 -79.7018
rradius 64.7963
rwrist -12.2377
rhand -24.3624 -5.81527
rfingers 7.12502
rthumb 2.12738 -35.7844
lclavicle -2.62396e-014 7.11649e-014
lhumerus -30.5196 -27.0709 80.9119
lradius 60.8875
lwrist 43.5867
lhand -22.5011 10.8843
lfingers 7.12502
lthumb 3.9249 40.8279
rfemur -61.8566 6.44713 18.7931
rtibia 48.37
rfoot -9.27848 -14.5136
rtoes 1.2498
lfemur -56.2526 4.9093 -25.0298
ltibia 46.6134
lfoot -10.7567 -0.0772729
ltoes 4.89631
874
root 13.9046 15.6703 -5.9859 25.1309 -58.4406 -5.45883
lowerback 34.3732 -1.07193 1.74308
upperback 11.8492 -1.62744 -0.0716665
thorax -4.43846 -1.07775 -0.42424
lowerneck 7.87882 1.30995 3.19197
upperneck -5.13944 1.96215 -1.93711
head -2.98585 0.982219 -1.28922
rclavicle 3.89618e-014 7.196e-014
rhumerus -26.8192 33.1306 -79.6672
rradius 65.1175
rwrist -12.1566
rhand -24.6889 -5.76536
rfingers 7.12502
rthumb 1.81201 -35.7374
lclavicle 3.89618e-014 7.196e-014
lhumerus -30.6492 -27.2593 81.0846
lradius 61.3064
lwrist 43.7413
lhand -22.2327 10.6551
lfingers 7.12502
lthumb 4.18411 40.5938
rfemur -61.7642 6.25917 18.9909
rtibia 48.2375
rfoot -9.22806 -14.3247
rtoes 1.36676
lfemur -56.1185 4.79205 -24.8664
ltibia 46.4324
lfoot -10.85 0.00518439
ltoes 4.90349
875
root 13.8664 15.689 -5.96734 25.3635 -58.4175 -5.56971
lowerback 34.2596 -1.0567 1.79841
upperback 11.8904 -1.59091 -0.0111313
thorax -4.35144 -1.06092 -0.40563
lowerneck 8.17843 1.30786 3.2117
upperneck -5.26523 1.96607 -1.99603
head -3.08577 0.986065 -1.31919
rclavicle 2.06736e-014 -1.55052e-014
rhumerus -26.881 32.8926 -79.6433
rradius 65.4834
rwrist -12.1501
rhand -24.9392 -5.69974
rfingers 7.12502
rthumb 1.57026 -35.6737
lclavicle 2.06736e-014 -1.55052e-014
lhumerus -30.8154 -27.407 81.2394
lradius 61.7597
lwrist 43.9988
lhand -21.9837 10.4261
lfingers 7.12502
lthumb 4.42453 40.3599
rfemur -61.6612 6.06951 19.2008
rtibia 48.1175
rfoot -9.19111 -14.1072
rtoes 1.4423
lfemur -55.9737 4.68218 -24.7003
ltibia 46.2659
lfoot -10.9557 0.101277
ltoes 4.91609
876
root 13.8297 15.7058 -5.94814 25.5978 -58.4016 -5.70042
lowerback 34.1736 -1.06047 1.86503
upperback 11.9317 -1.57579 0.033694
thorax -4.27509 -1.05386 -0.40159
lowerneck 8.4486 1.31732 3.22544
upperneck -5.38769 1.98383 -2.05459
head -3.17896 0.996932 -1.34832
rclavicle -2.98177e-014 2.74323e-014
rhumerus -26.9441 32.6762 -79.6383
rradius 65.8851
rwrist -12.1797
rhand -25.1081 -5.6134
rfingers 7.12502
rthumb 1.40721 -35.5885
lclavicle -2.98177e-014 2.74323e-014
lhumerus -31.016 -27.5009 81.37
lradius 62.2395
lwrist 44.3361
lhand -21.7451 10.2045
lfingers 7.12502
lthumb 4.65488 40.1334
rfemur -61.5549 5.89166 19.4148
rtibia 48.0142
rfoot -9.17293 -13.8813
rtoes 1.4898
lfemur -55.8337 4.58006 -24.5328
ltibia 46.1263
lfoot -11.0711 0.21082
ltoes 4.90251
877
root 13.7942 15.7205 -5.92885 25.8372 -58.388 -5.84471
lowerback 34.1044 -1.07813 1.92683
upperback 11.97 -1.57956 0.0734904
thorax -4.20843 -1.05587 -0.393565
lowerneck 8.67072 1.33923 3.21811
upperneck -5.48666 2.01483 -2.1058
head -3.25485 1.01462 -1.37096
rclavicle -1.59028e-015 -2.5842e-014
rhumerus -27.0124 32.5024 -79.6439
rradius 66.3198
rwrist -12.2242
rhand -25.1971 -5.51237
rfingers 7.12502
rthumb 1.32119 -35.488
lclavicle -1.59028e-015 -2.5842e-014
lhumerus -31.2473 -27.5293 81.4908
lradius 62.7289
lwrist 44.7138
lhand -21.5188 10.0191
lfingers 7.12502
lthumb 4.87341 39.9431
rfemur -61.4599 5.73294 19.6247
rtibia 47.9319
rfoot -9.17761 -13.6588
rtoes 1.5424
lfemur -55.7153 4.48953 -24.3685
ltibia 46.0226
lfoot -11.1939 0.321403
ltoes 4.87326
